<svg xmlns="http://www.w3.org/2000/svg" width="512" height="300" fill="none" viewBox="0 0 512 300"><rect width="15" height="65" x="40" y="125" fill="#262626"/><rect width="5" height="55" x="35" y="130" fill="#1A1A1A"/><rect width="5" height="59" x="55" y="128" fill="#707070"/><rect width="5" height="42" x="55" y="145" fill="#424242"/><rect width="40" height="15" x="70" y="115" fill="#424242"/><rect width="40" height="5" x="70" y="125" fill="#262626"/><circle cx="80" cy="122" r="3" fill="#707070"/><circle cx="100" cy="122" r="3" fill="#707070"/><polygon fill="#3b82f6" points="60 130 320 130 320 145 60 145"/><path fill="#1d4ed8" d="M60,145 L320,145 L320,170 L250,170 L240,185 L180,185 L175,170 L145,170 L130,215 L110,215 L125,170 L95,170 L95,190 L60,190 Z"/><rect width="100" height="5" x="150" y="135" fill="#1A1A1A" opacity=".3"/><polygon fill="#1A1A1A" points="260 135 310 135 310 140 260 140" opacity=".3"/><rect width="50" height="8" x="260" y="150" fill="#1A1A1A" opacity=".3"/><circle cx="155" cy="137" r="2" fill="#262626"/><circle cx="245" cy="137" r="2" fill="#262626"/><circle cx="305" cy="137" r="2" fill="#262626"/><rect width="90" height="10" x="150" y="110" fill="#C2C2C2"/><rect width="90" height="10" x="150" y="120" fill="#707070"/><rect width="40" height="8" x="190" y="115" fill="#424242"/><rect width="15" height="20" x="135" y="110" fill="#707070"/><rect width="6" height="20" x="140" y="125" fill="#424242"/><circle cx="143" cy="145" r="7" fill="#262626"/><circle cx="141" cy="143" r="3" fill="#707070"/><rect width="60" height="6" x="240" y="115" fill="#707070"/><rect width="60" height="6" x="240" y="121" fill="#424242"/><rect width="120" height="4" x="300" y="117" fill="#C2C2C2"/><rect width="120" height="4" x="300" y="121" fill="#424242"/><rect width="20" height="7" x="420" y="114" fill="#707070"/><rect width="20" height="7" x="420" y="121" fill="#262626"/><rect width="3" height="10" x="425" y="116" fill="#1A1A1A"/><rect width="3" height="10" x="432" y="116" fill="#1A1A1A"/><rect width="10" height="15" x="160" y="95" fill="#424242"/><rect width="10" height="15" x="210" y="95" fill="#424242"/><rect width="110" height="8" x="140" y="80" fill="#707070"/><rect width="110" height="7" x="140" y="88" fill="#424242"/><polygon fill="#707070" points="250 80 290 70 290 88 250 88"/><polygon fill="#424242" points="250 88 290 88 290 105 250 95"/><polygon fill="#707070" points="140 80 110 75 110 88 140 88"/><polygon fill="#424242" points="140 88 110 88 110 100 140 95"/><rect width="15" height="5" x="180" y="70" fill="#C2C2C2"/><rect width="15" height="5" x="180" y="75" fill="#707070"/><polygon fill="#262626" points="190 85 198 82 198 93 190 90"/><polygon fill="#707070" points="190 185 210 185 205 220 195 220"/><polygon fill="#424242" points="210 185 230 185 225 220 205 220"/><rect width="34" height="6" x="193" y="220" fill="#262626"/><path fill="none" stroke="#262626" stroke-width="4" d="M145,170 L145,190 L175,190 L175,170"/><path fill="none" stroke="#C2C2C2" stroke-width="4" d="M155,170 Q155,185 160,185"/><rect width="15" height="8" x="295" y="170" fill="#262626"/><polygon fill="#707070" points="300 175 310 175 250 182 245 182"/><polygon fill="#424242" points="245 182 250 182 310 175 310 180 250 188 245 188"/></svg>