<svg version="1.1" id="Layer_1" xmlns="http://www.w3.org/2000/svg" x="0px" y="0px"
     viewBox="0 0 512 512" style="enable-background:new 0 0 512 512;" xml:space="preserve">

<path style="fill:#424242;" d="M488.837,172.998c-35.092,0-63.539-28.447-63.539-63.539V0h-73.365v41.262
    c0,52.982-42.951,95.933-95.933,95.933c-52.982,0-95.933-42.95-95.933-95.933V0H86.703v109.459
    c0,35.091-28.447,63.539-63.539,63.539V512h465.673L488.837,172.998L488.837,172.998z"/>
<path style="fill:#707070;" d="M256,137.194c-52.982,0-95.933-42.95-95.933-95.933V0H86.703v109.459
    c0,35.091-28.447,63.539-63.539,63.539V512H256V137.194z"/>

<!-- Substituindo verdes por azuis -->
<rect x="0" y="380.949" style="fill:#60a5fa;" width="181.233" height="77.152"/>
<rect x="330.767" y="380.949" style="fill:#1d4ed8;" width="181.233" height="77.152"/>
<rect x="0" y="239.126" style="fill:#60a5fa;" width="181.233" height="77.152"/>
<rect x="330.767" y="239.126" style="fill:#1d4ed8;" width="181.233" height="77.152"/>
<rect x="0" y="380.949" style="fill:#bfdbfe;" width="91.421" height="77.152"/>
<rect x="330.767" y="380.949" style="fill:#60a5fa;" width="91.338" height="77.152"/>
<rect x="0" y="239.126" style="fill:#bfdbfe;" width="91.421" height="77.152"/>
<rect x="330.767" y="239.126" style="fill:#60a5fa;" width="91.338" height="77.152"/>
</svg>