<svg xmlns="http://www.w3.org/2000/svg" width="512" height="512" fill="none" viewBox="0 0 512 512"><polygon fill="#424242" points="256 150 160 100 180 30 256 50"/><polygon fill="#1A1A1A" points="256 150 352 100 332 30 256 50"/><polygon fill="#3b82f6" points="256 150 160 90 130 240 110 450 256 470"/><polygon fill="#1d4ed8" points="256 150 352 90 382 240 402 450 256 470"/><rect width="81" height="40" x="175" y="160" fill="#424242"/><rect width="81" height="40" x="256" y="160" fill="#262626"/><rect width="15" height="30" x="180" y="165" fill="#262626" opacity=".4"/><rect width="15" height="30" x="205" y="165" fill="#262626" opacity=".4"/><rect width="15" height="30" x="230" y="165" fill="#262626" opacity=".4"/><rect width="15" height="30" x="267" y="165" fill="#1A1A1A" opacity=".4"/><rect width="15" height="30" x="292" y="165" fill="#1A1A1A" opacity=".4"/><rect width="15" height="30" x="317" y="165" fill="#1A1A1A" opacity=".4"/><polygon fill="#424242" points="256 260 145 250 135 450 256 460"/><polygon fill="#262626" points="256 260 367 250 377 450 256 460"/><polygon fill="#707070" points="256 290 142 282 141 292 256 300" opacity=".7"/><polygon fill="#707070" points="256 330 139 322 138 332 256 340" opacity=".7"/><polygon fill="#707070" points="256 370 137 362 136 372 256 380" opacity=".7"/><polygon fill="#707070" points="256 410 135 402 134 412 256 420" opacity=".7"/><polygon fill="#1A1A1A" points="256 290 370 282 371 292 256 300" opacity=".7"/><polygon fill="#1A1A1A" points="256 330 373 322 374 332 256 340" opacity=".7"/><polygon fill="#1A1A1A" points="256 370 375 362 376 372 256 380" opacity=".7"/><polygon fill="#1A1A1A" points="256 410 377 402 378 412 256 420" opacity=".7"/><polygon fill="#262626" points="175 255 180 255 170 455 165 455" opacity=".6"/><polygon fill="#262626" points="215 257 220 257 215 457 210 457" opacity=".6"/><polygon fill="#1A1A1A" points="292 257 297 257 302 457 297 457" opacity=".6"/><polygon fill="#1A1A1A" points="332 255 337 255 347 455 342 455" opacity=".6"/><polygon fill="#424242" points="180 40 130 40 155 290 195 290"/><polygon fill="#707070" points="152 140 188 140 193 280 157 280"/><polygon fill="#262626" points="160 250 190 250 192 275 162 275"/><polygon fill="#1A1A1A" points="332 40 382 40 357 290 317 290"/><polygon fill="#262626" points="360 140 324 140 319 280 355 280"/><polygon fill="#1A1A1A" points="352 250 322 250 320 275 350 275"/><polygon fill="#707070" points="140 80 183 80 180 120 142 120"/><polygon fill="#262626" points="140 90 183 90 182 100 141 100"/><polygon fill="#424242" points="372 80 329 80 332 120 370 120"/><polygon fill="#1A1A1A" points="372 90 329 90 330 100 371 100"/><rect width="55" height="140" x="50" y="250" fill="#424242" rx="4"/><rect width="55" height="40" x="50" y="250" fill="#707070" rx="4"/><rect width="55" height="15" x="50" y="320" fill="#707070" opacity=".6"/><rect width="55" height="140" x="407" y="250" fill="#262626" rx="4"/><rect width="55" height="40" x="407" y="250" fill="#424242" rx="4"/><rect width="55" height="15" x="407" y="320" fill="#1A1A1A" opacity=".6"/></svg>