<svg xmlns="http://www.w3.org/2000/svg" width="512" height="512" fill="none" viewBox="0 0 512 512"><polygon fill="#424242" points="90 280 230 440 256 440 256 420 210 420 110 280"/><polygon fill="#262626" points="422 280 282 440 256 440 256 420 302 420 402 280"/><rect width="10" height="80" x="80" y="275" fill="#262626" rx="5"/><rect width="10" height="80" x="422" y="275" fill="#1A1A1A" rx="5"/><rect width="35" height="110" x="45" y="260" fill="#424242" rx="17"/><rect width="35" height="110" x="432" y="260" fill="#262626" rx="17"/><rect width="20" height="4" x="55" y="300" fill="#262626"/><rect width="20" height="4" x="55" y="320" fill="#262626"/><rect width="20" height="4" x="55" y="340" fill="#262626"/><rect width="20" height="4" x="437" y="300" fill="#1A1A1A"/><rect width="20" height="4" x="437" y="320" fill="#1A1A1A"/><rect width="20" height="4" x="437" y="340" fill="#1A1A1A"/><path stroke="#262626" stroke-width="6" d="M 60,350 L 150,420"/><circle cx="150" cy="420" r="12" fill="#424242"/><rect width="10" height="10" x="145" y="415" fill="#1A1A1A"/><path fill="#3b82f6" d="M 256,70 C 120,70 90,180 90,280 L 256,280 Z"/><path fill="#1d4ed8" d="M 256,70 C 392,70 422,180 422,280 L 256,280 Z"/><polygon fill="#C2C2C2" points="90 280 256 280 256 295 80 295"/><polygon fill="#707070" points="256 280 422 280 432 295 256 295"/><polygon fill="#707070" points="85 220 105 220 115 310 75 310"/><polygon fill="#424242" points="427 220 407 220 397 310 437 310"/><polygon fill="#424242" points="90 240 100 240 105 260 95 260"/><polygon fill="#424242" points="95 270 105 270 110 290 100 290"/><polygon fill="#262626" points="422 240 412 240 407 260 417 260"/><polygon fill="#262626" points="417 270 407 270 402 290 412 290"/><polygon fill="#262626" points="105 250 70 270 70 285 110 265"/><polygon fill="#1A1A1A" points="407 250 442 270 442 285 402 265"/><polygon fill="#424242" points="256 80 180 95 190 120 256 110"/><polygon fill="#262626" points="256 80 332 95 322 120 256 110"/><polygon fill="#424242" points="120 130 180 140 170 180 110 170"/><polygon fill="#262626" points="392 130 332 140 342 180 402 170"/><polygon fill="#707070" points="256 150 210 160 220 250 256 270"/><polygon fill="#424242" points="256 150 302 160 292 250 256 270"/><polygon fill="#424242" points="256 170 230 175 235 240 256 250"/><polygon fill="#262626" points="256 170 282 175 277 240 256 250"/><rect width="21" height="15" x="235" y="250" fill="#C2C2C2"/><rect width="21" height="15" x="256" y="250" fill="#707070"/><circle cx="245" cy="165" r="3" fill="#C2C2C2"/><circle cx="267" cy="165" r="3" fill="#707070"/><path stroke="#424242" stroke-width="4" d="M 215,200 L 140,280"/><circle cx="140" cy="280" r="6" fill="#424242"/><path stroke="#262626" stroke-width="4" d="M 297,200 L 372,280"/><circle cx="372" cy="280" r="6" fill="#262626"/></svg>