<svg xmlns="http://www.w3.org/2000/svg" width="512" height="512" fill="none" viewBox="0 0 512 512"><rect width="15" height="75" x="20" y="180" fill="#262626"/><polygon fill="#707070" points="35 180 110 180 110 210 35 210"/><polygon fill="#424242" points="35 210 110 210 110 230 80 260 35 260"/><polygon fill="#262626" points="50 215 90 215 90 225 75 240 50 240"/><rect width="40" height="10" x="110" y="185" fill="#707070"/><rect width="40" height="12" x="110" y="195" fill="#424242"/><rect width="100" height="15" x="150" y="175" fill="#C2C2C2"/><rect width="100" height="20" x="150" y="190" fill="#707070"/><rect width="30" height="10" x="210" y="195" fill="#424242"/><circle cx="240" cy="200" r="5" fill="#262626"/><polygon fill="#424242" points="150 210 250 210 250 240 200 240 200 255 150 255"/><rect width="35" height="5" x="205" y="215" fill="#262626"/><rect width="8" height="6" x="215" y="224" fill="#C2C2C2"/><circle cx="170" cy="220" r="4" fill="#EAEAEA"/><polygon fill="#262626" points="150 255 170 255 160 330 140 330"/><polygon fill="#424242" points="140 330 150 255 155 255 145 330"/><path fill="none" stroke="#262626" stroke-width="4" d="M170,255 L185,270 L200,255"/><rect width="4" height="10" x="180" y="255" fill="#C2C2C2"/><path fill="#707070" d="M205,240 L235,240 L245,360 L210,360 Z"/><path fill="#424242" d="M220,240 L235,240 L245,360 L225,360 Z"/><polygon fill="#262626" points="208 360 247 360 245 370 206 370"/><polygon fill="#1d4ed8" points="212 300 240 295 242 315 215 320"/><polygon fill="#3b82f6" points="212 300 225 298 227 318 215 320"/><circle cx="170" cy="175" r="4" fill="#262626"/><circle cx="230" cy="175" r="4" fill="#262626"/><polygon fill="#707070" points="150 175 160 135 175 135 170 175"/><polygon fill="#707070" points="240 135 250 175 230 175 225 135"/><rect width="80" height="10" x="160" y="135" fill="#C2C2C2"/><rect width="10" height="10" x="155" y="125" fill="#262626"/><polygon fill="#262626" points="250 185 260 180 260 210 250 205"/><polygon fill="#707070" points="260 180 370 185 370 195 260 195"/><polygon fill="#424242" points="260 195 370 195 370 210 260 210"/><rect width="4" height="25" x="275" y="183" fill="#262626" opacity=".4"/><rect width="4" height="25" x="290" y="183" fill="#262626" opacity=".4"/><rect width="4" height="25" x="305" y="184" fill="#262626" opacity=".4"/><rect width="4" height="25" x="320" y="184" fill="#262626" opacity=".4"/><rect width="4" height="25" x="335" y="185" fill="#262626" opacity=".4"/><rect width="4" height="25" x="350" y="185" fill="#262626" opacity=".4"/><rect width="15" height="10" x="370" y="193" fill="#262626"/><rect width="80" height="4" x="385" y="194" fill="#C2C2C2"/><rect width="80" height="4" x="385" y="198" fill="#424242"/><rect width="8" height="16" x="395" y="190" fill="#262626"/><rect width="8" height="16" x="415" y="190" fill="#262626"/><rect width="28" height="8" x="395" y="206" fill="#424242"/><polygon fill="#424242" points="400 190 408 140 415 140 423 190"/><rect width="4" height="7" x="410" y="133" fill="#262626"/><rect width="4" height="12" x="465" y="192" fill="#707070"/><polygon fill="#262626" points="469 193 485 194 485 202 469 203"/><rect width="2" height="10" x="472" y="193" fill="#C2C2C2"/><rect width="2" height="10" x="476" y="193" fill="#C2C2C2"/><rect width="2" height="10" x="480" y="194" fill="#C2C2C2"/></svg>