<svg width="553" height="697" viewBox="0 0 553 697" fill="none" xmlns="http://www.w3.org/2000/svg">
<path d="M201.381 500.669L224.557 477.493L171.406 424.342L148.231 447.518L201.381 500.669Z" fill="#424242"/>
<path d="M189.094 406.661L240.5 478L168.688 558.114L191.865 581.291L283 478L212.409 383.345L189.094 406.661Z" fill="#424242"/>
<path d="M167.091 475.48L96.551 546.019L205.84 697L276.38 626.461L167.091 475.48Z" fill="#424242"/>
<path d="M8.5 491.578L48.8712 531.869L72.0471 508.739L31.6759 468.449L8.5 491.578Z" fill="#707070"/>
<path d="M266.387 216.319L306.758 256.61L329.934 233.48L289.563 193.19L266.387 216.319Z" fill="#707070"/>
<path d="M222.123 550.791L167.091 474.915L96.551 545.313L151.585 621.19L222.123 550.791Z" fill="#707070"/>
<path d="M332.225 185L39.085 478.14C17.399 499.826 17.399 534.985 39.085 556.671L52.92 542.836L87.906 577.822L392.641 273.087L357.654 238.101L371.49 224.265L332.225 185Z" fill="#464646"/>
<path d="M398.898 172.352L404.5 166.789L388.6 151L314.327 225.423C309.823 229.895 298.5 241.25 298.5 241.25C298.5 241.25 310.049 252.752 314.327 257L319.929 251.437L398.898 172.352Z" fill="#464646"/>
<path d="M357.655 238.101L371.491 224.266L332.225 185L39.085 478.14C27.9636 489.261 0 517.5 0 517.5C0 517.5 28.5204 546.106 39.085 556.671L52.92 542.835L357.655 238.101Z" fill="#575757"/>
<path d="M541.189 43.3079L552.5 32.0244L520.4 1.31042e-05L370.452 150.952C361.36 160.023 338.5 183.053 338.5 183.053C338.5 183.053 361.815 206.384 370.452 215L381.762 203.716L541.189 43.3079Z" fill="#464646"/>
</svg>
