<svg xmlns="http://www.w3.org/2000/svg" width="512" height="256" fill="none" viewBox="0 0 512 256"><polygon fill="#9ca3af" points="120 60 360 60 360 85 120 85"/><polygon fill="#6b7280" points="120 85 360 85 360 110 120 110"/><rect width="4" height="30" x="130" y="70" fill="#4b5563"/><rect width="4" height="30" x="140" y="70" fill="#4b5563"/><rect width="4" height="30" x="150" y="70" fill="#4b5563"/><rect width="15" height="15" x="135" y="45" fill="#4b5563"/><rect width="5" height="15" x="140" y="45" fill="#3b82f6"/><rect width="10" height="10" x="340" y="50" fill="#4b5563"/><rect width="5" height="10" x="345" y="50" fill="#3b82f6"/><polygon fill="#374151" points="120 110 360 110 360 130 170 130 170 140 120 140"/><polygon fill="#1f2937" points="120 140 180 140 150 220 90 220"/><polygon fill="#111827" points="120 140 150 140 120 220 90 220"/><polygon fill="#3b82f6" points="85 220 155 220 150 240 80 240"/><polygon fill="#1d4ed8" points="85 220 120 220 115 240 80 240"/><polygon fill="#374151" points="180 140 180 170 240 170 240 130 225 130 225 155 195 155 195 140"/><polygon fill="#9ca3af" points="195 130 195 150 205 150 205 130"/><circle cx="140" cy="120" r="3" fill="#111827"/><circle cx="160" cy="120" r="3" fill="#111827"/></svg>