<svg xmlns="http://www.w3.org/2000/svg" width="512" height="512" fill="none" viewBox="0 0 512 512"><rect width="15" height="65" x="20" y="180" fill="#262626"/><polygon fill="#707070" points="35 180 110 180 110 205 35 195"/><polygon fill="#424242" points="35 195 110 205 110 230 60 245 35 245"/><polygon fill="#262626" points="50 200 95 200 95 220 65 230 50 230" opacity=".3"/><polygon fill="#707070" points="110 185 110 165 135 155 230 155 240 185"/><path stroke="#424242" stroke-width="2" d="M140,158 L145,185"/><path stroke="#424242" stroke-width="2" d="M160,156 L165,185"/><path stroke="#424242" stroke-width="2" d="M180,155 L185,185"/><path stroke="#424242" stroke-width="2" d="M200,155 L205,185"/><path stroke="#424242" stroke-width="2" d="M220,156 L225,185"/><rect width="130" height="40" x="110" y="185" fill="#424242"/><rect width="20" height="10" x="150" y="195" fill="#262626" rx="2"/><circle cx="170" cy="190" r="8" fill="#262626"/><polygon fill="#262626" points="165 190 175 190 220 210 215 215"/><polygon fill="#707070" points="150 225 160 225 155 245"/><polygon fill="#262626" points="110 225 135 225 125 310 95 305"/><polygon fill="#424242" points="110 225 115 225 105 305 95 305"/><path fill="none" stroke="#262626" stroke-width="5" d="M135,225 C135,255 165,255 165,225"/><path fill="none" stroke="#C2C2C2" stroke-width="4" d="M145,225 Q145,240 150,245"/><path fill="#707070" d="M165,225 Q150,320 180,410 L205,415 Q180,320 190,225 Z"/><path fill="#424242" d="M190,225 Q180,320 205,415 L235,420 Q210,320 215,225 Z"/><path fill="none" stroke="#262626" stroke-width="3" d="M175,240 Q160,320 190,400" opacity=".4"/><path fill="none" stroke="#262626" stroke-width="3" d="M185,240 Q170,320 200,405" opacity=".4"/><path fill="none" stroke="#1A1A1A" stroke-width="3" d="M195,240 Q180,320 210,410" opacity=".4"/><path fill="none" stroke="#1A1A1A" stroke-width="3" d="M205,240 Q190,320 220,415" opacity=".4"/><polygon fill="#ef4444" points="157 300 186 303 188 335 159 330"/><polygon fill="#b91c1c" points="186 303 216 307 220 340 188 335"/><polygon fill="#424242" points="230 155 250 150 240 185 230 185"/><polygon fill="#262626" points="230 155 250 150 250 165 230 165"/><polygon fill="#707070" points="240 165 310 165 320 185 240 185"/><polygon fill="#424242" points="240 195 330 195 320 225 240 225"/><polygon fill="#262626" points="260 195 300 195 300 225 260 230" opacity=".5"/><rect width="190" height="3" x="240" y="198" fill="#262626"/><rect width="200" height="5" x="240" y="185" fill="#C2C2C2"/><rect width="200" height="5" x="240" y="190" fill="#424242"/><rect width="20" height="15" x="310" y="170" fill="#707070"/><polygon fill="#424242" points="330 180 345 180 325 170 310 170"/><rect width="20" height="10" x="330" y="180" fill="#424242"/><rect width="15" height="15" x="410" y="185" fill="#262626"/><circle cx="417" cy="170" r="10" fill="none" stroke="#424242" stroke-width="4"/><rect width="4" height="15" x="415" y="170" fill="#262626"/><rect width="10" height="10" x="440" y="185" fill="#707070"/><polygon fill="#424242" points="450 184 468 184 460 196 450 196"/></svg>