<svg version="1.1" id="Layer_1" xmlns="http://www.w3.org/2000/svg" x="0px" y="0px"
     viewBox="0 0 512 512" style="enable-background:new 0 0 512 512;" xml:space="preserve">

<rect x="235.809" y="324.824" transform="matrix(0.7071 -0.7071 0.7071 0.7071 -151.4565 315.3481)" style="fill:#424242;" width="138.243" height="31.348"/>
<g>
    <polygon style="fill:#8F8F8F;" points="215.402,354.327 254.541,448.818 306.969,427.101 258.835,310.895"/>
    <path style="fill:#8F8F8F;" d="M346.049,242.126l-35.21-35.21l-44.391,44.391l35.21,35.21
        c44.938,44.938,108.586,59.757,165.869,44.465l-16.251-60.648C414.937,280.036,374.558,270.635,346.049,242.126z"/>
</g>
<g>
    <polygon style="fill:#424242;" points="471.463,24.126 447.337,0 425.171,22.166 449.297,46.293 335.252,160.338 357.418,182.505 
        511.482,28.441 489.316,6.274"/>
    <polygon style="fill:#424242;" points="100.868,346.469 0.518,446.82 65.698,512 136.078,381.679 166.049,411.65 340.799,236.899 
        275.619,171.718"/>
</g>
<rect x="211.93" y="181.054" transform="matrix(-0.7071 0.7071 -0.7071 -0.7071 677.5671 131.9103)" style="fill:#8F8F8F;" width="199.068" height="50.459"/>
<rect x="203.009" y="184.762" transform="matrix(-0.7071 0.7071 -0.7071 -0.7071 656.0391 123.0084)" style="fill:#C2C2C2;" width="199.068" height="25.224"/>

<!-- Verdes convertidos para vermelho -->
<rect x="99.889" y="244.508" transform="matrix(-0.7071 0.7071 -0.7071 -0.7071 589.5687 344.4008)" style="fill:#b91c1c;" width="247.135" height="99.592"/>
<rect x="82.276" y="251.804" transform="matrix(-0.7071 0.7071 -0.7071 -0.7071 547.0548 326.8047)" style="fill:#f87171;" width="247.135" height="49.794"/>

<rect x="156.48" y="278.627" transform="matrix(0.7071 -0.7071 0.7071 0.7071 -142.6538 244.2045)" style="fill:#424242;" width="133.949" height="31.348"/>
<rect x="43.402" y="343.302" transform="matrix(0.7071 0.7071 -0.7071 0.7071 312.9285 73.0389)" style="fill:#707070;" width="49.794" height="141.911"/>
</svg>