<svg width="512" height="300" viewBox="0 0 512 300" fill="none" xmlns="http://www.w3.org/2000/svg">
            
            <!-- CHAPA DE COICE & ESPAÇADORES -->
            <rect x="40" y="125" width="15" height="65" fill="#262626" />
            <rect x="35" y="130" width="5" height="55" fill="#1A1A1A" />
            <rect x="55" y="128" width="5" height="59" fill="#707070" />
            <rect x="55" y="145" width="5" height="42" fill="#424242" />

            <!-- APOIO DE BOCHECHA (CHEEK REST) -->
            <rect x="70" y="115" width="40" height="15" fill="#424242" />
            <rect x="70" y="125" width="40" height="5" fill="#262626" />
            <circle cx="80" cy="122" r="3" fill="#707070" />
            <circle cx="100" cy="122" r="3" fill="#707070" />

            <!-- CHASSI PRINCIPAL (ILUMINADO - VERMELHO CLARO) -->
            <polygon points="60,130 320,130 320,145 60,145" fill="#ef4444" />

            <!-- CHASSI PRINCIPAL (SOMBREADO - VERMELHO ESCURO) -->
            <!-- Inclui a coronha, o buraco do polegar e a frente -->
            <path d="M60,145 L320,145 L320,170 L250,170 L240,185 L180,185 L175,170 L145,170 L130,215 L110,215 L125,170 L95,170 L95,190 L60,190 Z" fill="#b91c1c" />

            <!-- DETALHES DO CHASSI (PAINÉIS E PARAFUSOS) -->
            <rect x="150" y="135" width="100" height="5" fill="#1A1A1A" opacity="0.3" />
            <polygon points="260,135 310,135 310,140 260,140" fill="#1A1A1A" opacity="0.3" />
            <rect x="260" y="150" width="50" height="8" fill="#1A1A1A" opacity="0.3" />
            <circle cx="155" cy="137" r="2" fill="#262626" />
            <circle cx="245" cy="137" r="2" fill="#262626" />
            <circle cx="305" cy="137" r="2" fill="#262626" />

            <!-- CORPO METÁLICO (RECEIVER) -->
            <rect x="150" y="110" width="90" height="10" fill="#C2C2C2" />
            <rect x="150" y="120" width="90" height="10" fill="#707070" />
            <rect x="190" y="115" width="40" height="8" fill="#424242" />

            <!-- FERROLHO (BOLT) -->
            <rect x="135" y="110" width="15" height="20" fill="#707070" />
            <rect x="140" y="125" width="6" height="20" fill="#424242" />
            <circle cx="143" cy="145" r="7" fill="#262626" />
            <circle cx="141" cy="143" r="3" fill="#707070" />

            <!-- CANO (BARREL) -->
            <rect x="240" y="115" width="60" height="6" fill="#707070" />
            <rect x="240" y="121" width="60" height="6" fill="#424242" />
            <rect x="300" y="117" width="120" height="4" fill="#C2C2C2" />
            <rect x="300" y="121" width="120" height="4" fill="#424242" />

            <!-- QUEBRA-CHAMAS (MUZZLE BRAKE) -->
            <rect x="420" y="114" width="20" height="7" fill="#707070" />
            <rect x="420" y="121" width="20" height="7" fill="#262626" />
            <rect x="425" y="116" width="3" height="10" fill="#1A1A1A" />
            <rect x="432" y="116" width="3" height="10" fill="#1A1A1A" />

            <!-- MIRA TELESCÓPICA (SCOPE) -->
            <!-- Anéis -->
            <rect x="160" y="95" width="10" height="15" fill="#424242" />
            <rect x="210" y="95" width="10" height="15" fill="#424242" />
            <!-- Tubo -->
            <rect x="140" y="80" width="110" height="8" fill="#707070" />
            <rect x="140" y="88" width="110" height="7" fill="#424242" />
            <!-- Lente Frontal -->
            <polygon points="250,80 290,70 290,88 250,88" fill="#707070" />
            <polygon points="250,88 290,88 290,105 250,95" fill="#424242" />
            <!-- Lente Traseira -->
            <polygon points="140,80 110,75 110,88 140,88" fill="#707070" />
            <polygon points="140,88 110,88 110,100 140,95" fill="#424242" />
            <!-- Torres de Ajuste -->
            <rect x="180" y="70" width="15" height="5" fill="#C2C2C2" />
            <rect x="180" y="75" width="15" height="5" fill="#707070" />
            <polygon points="190,85 198,82 198,93 190,90" fill="#262626" />

            <!-- CARREGADOR (MAGAZINE) -->
            <polygon points="190,185 210,185 205,220 195,220" fill="#707070" />
            <polygon points="210,185 230,185 225,220 205,220" fill="#424242" />
            <rect x="193" y="220" width="34" height="6" fill="#262626" />

            <!-- GATILHO E GUARDA-MATO -->
            <path d="M145,170 L145,190 L175,190 L175,170" fill="none" stroke="#262626" stroke-width="4" />
            <path d="M155,170 Q155,185 160,185" fill="none" stroke="#C2C2C2" stroke-width="4" />

            <!-- BIPÉ RECOLHIDO (FOLDED BIPOD) -->
            <rect x="295" y="170" width="15" height="8" fill="#262626" />
            <polygon points="300,175 310,175 250,182 245,182" fill="#707070" />
            <polygon points="245,182 250,182 310,175 310,180 250,188 245,188" fill="#424242" />

        </svg>