<svg width="512" height="512" viewBox="0 0 512 512" fill="none" xmlns="http://www.w3.org/2000/svg">
<path d="M252.881 315.668L276.057 292.493L222.906 239.342L199.731 262.518L252.881 315.668Z" fill="#424242"/>
<path d="M240.594 221.661L292 293L220.188 373.114L243.365 396.291L334.5 293L263.909 198.345L240.594 221.661Z" fill="#424242"/>
<path d="M218.591 290.48L148.051 361.019L257.34 512L327.88 441.461L218.591 290.48Z" fill="#424242"/>
<path d="M60 307.176L100.371 347.547L123.547 324.371L83.1759 284L60 307.176Z" fill="#707070"/>
<path d="M317.887 31.3654L358.258 71.7366L381.434 48.5607L341.063 8.1895L317.887 31.3654Z" fill="#707070"/>
<path d="M273.623 366.508L218.591 290.48L148.051 361.019L203.085 437.047L273.623 366.508Z" fill="#707070"/>
<path d="M383.725 0L90.585 293.14C68.899 314.826 68.899 349.985 90.585 371.671L104.42 357.836L139.406 392.822L444.141 88.087L409.154 53.101L422.99 39.265L383.725 0Z" fill="#464646"/>
<path d="M409.155 53.101L422.991 39.266L383.725 0L90.585 293.14C79.4636 304.261 51.5 332.5 51.5 332.5C51.5 332.5 80.0204 361.106 90.585 371.671L104.42 357.835L409.155 53.101Z" fill="#575757"/>
</svg>
