<svg xmlns="http://www.w3.org/2000/svg" width="512" height="256" fill="none" viewBox="0 0 512 256"><rect width="260" height="20" x="110" y="55" fill="#9ca3af"/><rect width="260" height="25" x="110" y="75" fill="#6b7280"/><rect width="6" height="25" x="120" y="75" fill="#4b5563"/><rect width="6" height="25" x="130" y="75" fill="#4b5563"/><rect width="6" height="25" x="140" y="75" fill="#4b5563"/><rect width="30" height="20" x="250" y="55" fill="#4b5563"/><rect width="30" height="5" x="250" y="75" fill="#374151"/><polygon fill="#374151" points="110 100 370 100 370 120 160 120 160 130 110 130"/><rect width="35" height="5" x="330" y="115" fill="#1f2937"/><polygon fill="#1f2937" points="110 130 170 130 150 230 90 230"/><polygon fill="#111827" points="110 130 140 130 120 230 90 230"/><polygon fill="#4b5563" points="87 230 153 230 150 245 84 245"/><polygon fill="#374151" points="87 230 120 230 117 245 84 245"/><polygon fill="#374151" points="170 120 170 165 240 165 240 120 225 120 225 150 185 150 185 120"/><polygon fill="#9ca3af" points="185 120 185 145 195 145 195 120"/><polygon fill="#4b5563" points="190 130 195 135 195 145 190 145"/><rect width="15" height="15" x="120" y="40" fill="#4b5563"/><rect width="10" height="10" x="350" y="45" fill="#4b5563"/></svg>