<svg width="256" height="256" viewBox="0 0 256 256" fill="none" xmlns="http://www.w3.org/2000/svg">
                <!-- Blocos de Explosivo -->
                <rect x="40" y="50" width="40" height="140" fill="#e5e7eb" />
                <rect x="85" y="50" width="40" height="140" fill="#d1d5db" />
                <rect x="130" y="50" width="40" height="140" fill="#9ca3af" />
                <rect x="175" y="50" width="40" height="140" fill="#6b7280" />

                <!-- Fitas Adesivas Pretas -->
                <rect x="30" y="70" width="195" height="25" fill="#1f2937" />
                <rect x="30" y="145" width="195" height="25" fill="#1f2937" />

                <!-- Modulo Temporizador -->
                <rect x="95" y="90" width="65" height="60" fill="#4b5563" />
                <rect x="127" y="90" width="33" height="60" fill="#374151" /> <!-- Sombra modulo -->

                <!-- Ecrã Digital -->
                <rect x="105" y="100" width="45" height="20" fill="#111827" />
                <text x="127" y="115" font-family="monospace, sans-serif" font-size="14" fill="#ef4444" font-weight="bold" text-anchor="middle">7355</text>

                <!-- Teclado Numérico (Quadrados) -->
                <rect x="105" y="130" width="10" height="10" fill="#9ca3af" />
                <rect x="122" y="130" width="10" height="10" fill="#9ca3af" />
                <rect x="140" y="130" width="10" height="10" fill="#6b7280" />

                <!-- Fios Geométricos -->
                <polyline points="115,90 115,70 145,70 145,50" fill="none" stroke="#ef4444" stroke-width="4" />
                <polyline points="135,90 135,80 165,80 165,50" fill="none" stroke="#3b82f6" stroke-width="4" />
            </svg>