<svg xmlns="http://www.w3.org/2000/svg" width="256" height="256" fill="none" viewBox="0 0 256 256"><rect width="40" height="140" x="40" y="50" fill="#e5e7eb"/><rect width="40" height="140" x="85" y="50" fill="#d1d5db"/><rect width="40" height="140" x="130" y="50" fill="#9ca3af"/><rect width="40" height="140" x="175" y="50" fill="#6b7280"/><rect width="195" height="25" x="30" y="70" fill="#1f2937"/><rect width="195" height="25" x="30" y="145" fill="#1f2937"/><rect width="65" height="60" x="95" y="90" fill="#4b5563"/><rect width="33" height="60" x="127" y="90" fill="#374151"/><rect width="45" height="20" x="105" y="100" fill="#111827"/><text x="127" y="115" fill="#ef4444" font-family="monospace, sans-serif" font-size="14" font-weight="bold" text-anchor="middle">7355</text><rect width="10" height="10" x="105" y="130" fill="#9ca3af"/><rect width="10" height="10" x="122" y="130" fill="#9ca3af"/><rect width="10" height="10" x="140" y="130" fill="#6b7280"/><polyline fill="none" stroke="#ef4444" stroke-width="4" points="115 90 115 70 145 70 145 50"/><polyline fill="none" stroke="#3b82f6" stroke-width="4" points="135 90 135 80 165 80 165 50"/></svg>