<?xml version="1.0" encoding="iso-8859-1"?>
<svg version="1.1" id="Layer_1" xmlns="http://www.w3.org/2000/svg" xmlns:xlink="http://www.w3.org/1999/xlink" x="0px" y="0px"
	 viewBox="0 0 512 512" style="enable-background:new 0 0 512 512;" xml:space="preserve">
<g>
	
		<rect x="221.502" y="239.921" transform="matrix(-0.7071 0.7071 -0.7071 -0.7071 602.3292 305.5167)" style="fill:#424242;" width="32.776" height="75.167"/>
	<path style="fill:#424242;" d="M240.594,221.661l34.996,34.996c14.691,19.808,13.062,47.993-4.888,65.944l-50.514,50.513
		l23.177,23.177l50.513-50.514c30.742-30.744,32.406-79.7,5.027-112.436l-34.996-34.996L240.594,221.661z"/>
	<polygon style="fill:#424242;" points="218.591,290.48 148.051,361.019 257.34,512 327.88,441.461 	"/>
</g>
<g>
	
		<rect x="71.086" y="273.604" transform="matrix(-0.7071 -0.7071 0.7071 -0.7071 -34.9709 565.4993)" style="fill:#707070;" width="57.094" height="32.776"/>
	
		<rect x="321.111" y="23.572" transform="matrix(-0.7071 -0.7071 0.7071 -0.7071 568.6483 315.462)" style="fill:#707070;" width="57.094" height="32.776"/>
	<polygon style="fill:#707070;" points="273.623,366.508 218.591,290.48 148.051,361.019 203.085,437.047 	"/>
</g>
<path style="fill:#C2C2C2;" d="M383.725,0L90.585,293.14c-21.686,21.686-21.686,56.845,0,78.531l13.835-13.835l34.986,34.986
	L444.141,88.087l-34.987-34.986l13.836-13.836L383.725,0z"/>
<path style="fill:#EAEAEA;" d="M409.155,53.101l13.836-13.835L383.725,0L90.585,293.14c-21.686,21.686-21.686,56.845,0,78.531
	l13.835-13.836l0,0L409.155,53.101L409.155,53.101z"/>
</svg>
