<svg xmlns="http://www.w3.org/2000/svg" width="512" height="256" fill="none" viewBox="0 0 512 256"><polygon fill="#e5e7eb" points="100 50 400 50 400 75 100 75"/><polygon fill="#9ca3af" points="100 75 400 75 370 120 100 120"/><polygon fill="#9ca3af" points="380 50 385 50 385 75 380 75"/><polygon fill="#9ca3af" points="360 50 365 50 365 75 360 75"/><rect width="230" height="25" x="100" y="120" fill="#4b5563"/><polygon fill="#1f2937" points="100 145 180 145 150 235 70 235"/><polygon fill="#111827" points="110 155 160 155 140 220 90 220"/><polygon fill="#4b5563" points="180 145 180 185 260 185 260 145 240 145 240 165 200 165 200 145"/><polygon fill="#d1d5db" points="205 145 205 160 215 160 215 145"/><polygon fill="#6b7280" points="100 80 80 80 90 120 100 120"/><rect width="20" height="15" x="110" y="35" fill="#6b7280"/><rect width="10" height="15" x="380" y="35" fill="#6b7280"/><circle cx="120" cy="132" r="4" fill="#111827"/><circle cx="125" cy="180" r="4" fill="#374151"/></svg>