<svg width="512" height="256" viewBox="0 0 512 256" fill="none" xmlns="http://www.w3.org/2000/svg">
                <!-- Cano Massivo Light -->
                <polygon points="100,50 400,50 400,75 100,75" fill="#e5e7eb" />
                <!-- Cano Massivo Dark -->
                <polygon points="100,75 400,75 370,120 100,120" fill="#9ca3af" />
                
                <!-- Recortes Triangulares no cano (Flutes) -->
                <polygon points="380,50 385,50 385,75 380,75" fill="#9ca3af" />
                <polygon points="360,50 365,50 365,75 360,75" fill="#9ca3af" />
                
                <!-- Frame Inferior -->
                <rect x="100" y="120" width="230" height="25" fill="#4b5563" />
                
                <!-- Punho (Grip) -->
                <polygon points="100,145 180,145 150,235 70,235" fill="#1f2937" />
                <!-- Painel do Grip -->
                <polygon points="110,155 160,155 140,220 90,220" fill="#111827" />
                
                <!-- Guarda-mato -->
                <polygon points="180,145 180,185 260,185 260,145 240,145 240,165 200,165 200,145" fill="#4b5563" />
                
                <!-- Gatilho -->
                <polygon points="205,145 205,160 215,160 215,145" fill="#d1d5db" />
                
                <!-- Cão (Hammer) -->
                <polygon points="100,80 80,80 90,120 100,120" fill="#6b7280" />
                
                <!-- Miras -->
                <rect x="110" y="35" width="20" height="15" fill="#6b7280" />
                <rect x="380" y="35" width="10" height="15" fill="#6b7280" />

                <!-- Pinos -->
                <circle cx="120" cy="132" r="4" fill="#111827" />
                <circle cx="125" cy="180" r="4" fill="#374151" />
            </svg>