<svg xmlns="http://www.w3.org/2000/svg" width="256" height="256" fill="none" viewBox="0 0 256 256"><polygon fill="#1f2937" points="115 20 125 20 135 140 125 140"/><rect width="30" height="20" x="100" y="40" fill="#6b7280"/><rect width="15" height="20" x="115" y="40" fill="#4b5563"/><rect width="15" height="15" x="130" y="30" fill="none" stroke="#d1d5db" stroke-width="4"/><polygon fill="#d1d5db" points="90 60 140 60 145 70 85 70"/><polygon fill="#9ca3af" points="115 60 140 60 145 70 115 70"/><rect width="30" height="160" x="85" y="70" fill="#d1d5db"/><rect width="30" height="160" x="115" y="70" fill="#9ca3af"/><rect width="30" height="15" x="85" y="85" fill="#3b82f6"/><rect width="30" height="15" x="115" y="85" fill="#1d4ed8"/><rect width="30" height="15" x="85" y="200" fill="#3b82f6"/><rect width="30" height="15" x="115" y="200" fill="#1d4ed8"/><rect width="8" height="8" x="95" y="115" fill="#374151"/><rect width="8" height="8" x="125" y="115" fill="#111827"/><rect width="8" height="8" x="95" y="140" fill="#374151"/><rect width="8" height="8" x="125" y="140" fill="#111827"/><rect width="8" height="8" x="95" y="165" fill="#374151"/><rect width="8" height="8" x="125" y="165" fill="#111827"/><polygon fill="#9ca3af" points="85 230 145 230 140 240 90 240"/><polygon fill="#6b7280" points="115 230 145 230 140 240 115 240"/></svg>