<svg width="400" height="400" viewBox="0 0 400 400" fill="none" xmlns="http://www.w3.org/2000/svg">
<path d="M268.421 288.619C268.421 334.653 228.069 371.971 182.671 371.971C137.267 371.971 96.326 334.653 96.326 288.619L96.326 186.865C96.326 140.831 137.268 103.513 182.671 103.513C228.069 103.513 268.421 140.831 268.421 186.865V288.619Z" fill="#464646"/>
<path d="M266.16 307.431H99.6557L109.724 347.778H256.088L266.16 307.431Z" fill="#26661D"/>
<path d="M280.812 213.32H85L90.8237 172.976H274.988L280.812 213.32Z" fill="#26661D"/>
<path d="M274.988 282.633H90.8237L85 242.287H280.812L274.988 282.633Z" fill="#26661D"/>
<path d="M315.021 193.051L267.609 75.0751C267.412 74.5763 267.158 74.1254 266.874 73.7017C270.117 69.1244 272.045 63.534 272.045 57.4745C272.045 42.0687 259.707 29.5793 244.489 29.5793C229.271 29.5793 216.935 42.07 216.935 57.4745C216.935 72.879 229.27 85.3633 244.489 85.3633C248.336 85.3633 251.997 84.5626 255.32 83.1232L301.702 198.533C302.834 201.357 305.525 203.07 308.363 203.07C309.266 203.07 310.182 202.899 311.07 202.532C314.75 201.016 316.516 196.772 315.021 193.051ZM226.863 57.4745C226.863 47.6203 234.754 39.6317 244.489 39.6317C254.224 39.6317 262.114 47.6203 262.114 57.4745C262.114 67.3262 254.223 75.3147 244.489 75.3147C234.754 75.3147 226.863 67.3275 226.863 57.4745Z" fill="#464646"/>
<path d="M256.088 103.666H208.42V67.9597H238.27C243.993 67.9597 248.634 63.2645 248.634 57.4745C248.634 51.6781 243.993 46.9829 238.27 46.9829H208.42V32.2573H156.415V103.666H109.722L99.6544 144.016H266.16L256.088 103.666Z" fill="#26661D"/>
<path opacity="0.28" d="M266.315 307.859C268 298.5 268.5 292.5 268 283L275.132 282.971L280.948 242.478H268.5V213.5L280.948 213.407L275.132 172.917H267C265.278 162.439 261.181 152.768 256 144L266.315 143.851L256.258 103.355H208.653V67.5196H219.185C223.276 77.7593 233.137 84.9863 244.674 84.9863C248.515 84.9863 252.172 84.1827 255.491 82.7381L301.811 198.566C302.942 201.401 305.629 203.12 308.463 203.12C309.365 203.12 310.28 202.948 311.167 202.58C314.842 201.059 316.605 196.799 315.112 193.064L267.763 74.6607C267.566 74.1601 267.313 73.7076 267.029 73.2824C270.268 68.6885 272.193 63.0778 272.193 56.9964C272.193 41.5347 259.872 29 244.674 29C233.139 29 223.276 36.227 219.185 46.468H208.653V31.689H183.171V372C208.692 370.274 221.423 364.656 242 348.352H256.257L266.315 307.859ZM238.462 46.468H230.456C233.657 42.0015 238.823 39.0889 244.671 39.0889C254.394 39.0889 262.273 47.1064 262.273 56.9964C262.273 66.8837 254.392 74.9013 244.671 74.9013C238.822 74.9013 233.653 71.986 230.453 67.5196H238.461C244.176 67.5196 248.81 62.8074 248.81 56.9964C248.812 51.1802 244.177 46.468 238.462 46.468Z" fill="black"/>
</svg>
