<svg xmlns="http://www.w3.org/2000/svg" width="256" height="256" fill="none" viewBox="0 0 256 256"><rect width="20" height="20" x="135" y="30" fill="none" stroke="#9ca3af" stroke-width="4"/><polygon fill="#1f2937" points="115 40 125 40 150 130 140 130"/><rect width="30" height="20" x="100" y="60" fill="#4b5563"/><rect width="15" height="20" x="115" y="60" fill="#374151"/><polygon fill="#166534" points="90 80 140 80 150 100 80 100"/><polygon fill="#22c55e" points="80 100 115 100 115 200 80 200"/><polygon fill="#15803d" points="115 100 150 100 150 200 115 200"/><polygon fill="#4ade80" points="70 120 80 120 80 180 70 180"/><polygon fill="#14532d" points="150 120 160 120 160 180 150 180"/><polygon fill="#064e3b" points="80 200 150 200 140 220 90 220"/><rect width="90" height="4" x="70" y="120" fill="#064e3b" opacity=".6"/><rect width="90" height="4" x="70" y="145" fill="#064e3b" opacity=".6"/><rect width="90" height="4" x="70" y="170" fill="#064e3b" opacity=".6"/><rect width="4" height="100" x="95" y="100" fill="#064e3b" opacity=".6"/><rect width="4" height="100" x="130" y="100" fill="#064e3b" opacity=".6"/></svg>