<svg xmlns="http://www.w3.org/2000/svg" width="256" height="256" fill="none" viewBox="0 0 256 256"><rect width="150" height="130" x="50" y="70" fill="#15803d"/><rect width="75" height="130" x="125" y="70" fill="#14532d"/><rect width="150" height="15" x="50" y="100" fill="#064e3b"/><rect width="150" height="15" x="50" y="150" fill="#064e3b"/><rect width="75" height="15" x="125" y="100" fill="#022c22"/><rect width="75" height="15" x="125" y="150" fill="#022c22"/><rect width="30" height="35" x="110" y="140" fill="#374151"/><rect width="15" height="35" x="125" y="140" fill="#1f2937"/><rect width="45" height="85" x="40" y="50" fill="#eab308"/><rect width="23" height="85" x="62" y="50" fill="#ca8a04"/><rect width="35" height="20" x="45" y="60" fill="#1f2937"/><text x="62" y="75" fill="#ef4444" font-family="monospace, sans-serif" font-size="12" font-weight="bold" text-anchor="middle">0.0</text><polygon fill="#374151" points="55 95 69 95 72 105 69 115 55 115 52 105"/><polygon fill="#1f2937" points="62 95 69 95 72 105 69 115 62 115"/><polygon fill="#ef4444" points="150 70 160 70 170 120 160 120"/><polygon fill="#b91c1c" points="170 70 180 70 190 120 180 120"/><polygon fill="#d1d5db" points="155 70 165 40 165 70"/><polygon fill="#9ca3af" points="175 70 165 40 165 70"/><rect width="4" height="4" x="163" y="68" fill="#111827"/></svg>