<svg xmlns="http://www.w3.org/2000/svg" width="256" height="256" fill="none" viewBox="0 0 256 256"><polygon fill="#f97316" points="128 10 95 50 128 65 161 50"/><polygon fill="#ea580c" points="128 10 128 65 161 50"/><polygon fill="#fef08a" points="128 25 110 50 128 55 146 50"/><polygon fill="#facc15" points="128 25 128 55 146 50"/><polygon fill="#f3f4f6" points="115 50 141 50 135 70 121 70"/><polygon fill="#d1d5db" points="128 50 141 50 135 70 128 70"/><polygon fill="#f3f4f6" points="135 60 150 65 140 95 128 85"/><polygon fill="#d1d5db" points="142 62 150 65 140 95 134 88"/><polygon fill="#166534" points="115 65 128 65 128 100 100 140 128 140"/><polygon fill="#14532d" points="128 65 141 65 141 100 156 140 128 140"/><polygon fill="#166534" points="100 140 128 140 128 240 100 240"/><polygon fill="#14532d" points="128 140 156 140 156 240 128 240"/><polygon fill="#fef08a" points="98 160 128 160 128 205 98 205"/><polygon fill="#eab308" points="128 160 158 160 158 205 128 205"/><rect width="15" height="4" x="105" y="170" fill="#ca8a04"/><rect width="15" height="4" x="128" y="170" fill="#a16207"/><rect width="46" height="4" x="105" y="180" fill="#ca8a04"/><rect width="20" height="4" x="128" y="190" fill="#a16207"/><polygon fill="#064e3b" points="100 220 128 220 128 240 100 240"/><polygon fill="#022c22" points="128 220 156 220 156 240 128 240"/></svg>