<svg width="256" height="256" viewBox="0 0 256 256" fill="none" xmlns="http://www.w3.org/2000/svg">
                <!-- Spoon (Alavanca) -->
                <polygon points="115,30 125,30 145,150 135,150" fill="#1f2937" />
                
                <!-- Bloco do Detonador -->
                <rect x="100" y="50" width="30" height="30" fill="#4b5563" />
                <rect x="115" y="50" width="15" height="30" fill="#374151" />
                <!-- Argola Geométrica -->
                <rect x="130" y="40" width="15" height="15" fill="none" stroke="#9ca3af" stroke-width="4" />

                <!-- Chanfro Superior -->
                <polygon points="80,90 150,90 160,100 70,100" fill="#6b7280" />
                <polygon points="115,90 150,90 160,100 115,100" fill="#4b5563" />

                <!-- Cilindro Metálico (Iluminado / Sombreado) -->
                <rect x="70" y="100" width="45" height="130" fill="#9ca3af" />
                <rect x="115" y="100" width="45" height="130" fill="#6b7280" />

                <!-- Faixa Identificadora (green-500) -->
                <rect x="70" y="130" width="45" height="30" fill="#22c55e" />
                <rect x="115" y="130" width="45" height="30" fill="#15803d" />

                <!-- Ranhuras Inferiores e Textos/Decalques (Geométricos) -->
                <rect x="80" y="180" width="30" height="6" fill="#e5e7eb" />
                <rect x="115" y="180" width="20" height="6" fill="#9ca3af" />
                
                <rect x="85" y="195" width="20" height="4" fill="#e5e7eb" />
                <rect x="115" y="195" width="20" height="4" fill="#9ca3af" />

                <!-- Chanfro Inferior -->
                <polygon points="70,230 160,230 150,240 80,240" fill="#4b5563" />
                <polygon points="115,230 160,230 150,240 115,240" fill="#374151" />
            </svg>