<svg xmlns="http://www.w3.org/2000/svg" width="256" height="256" fill="none" viewBox="0 0 256 256"><polygon fill="#1f2937" points="115 30 125 30 145 150 135 150"/><rect width="30" height="30" x="100" y="50" fill="#4b5563"/><rect width="15" height="30" x="115" y="50" fill="#374151"/><rect width="15" height="15" x="130" y="40" fill="none" stroke="#9ca3af" stroke-width="4"/><polygon fill="#6b7280" points="80 90 150 90 160 100 70 100"/><polygon fill="#4b5563" points="115 90 150 90 160 100 115 100"/><rect width="45" height="130" x="70" y="100" fill="#9ca3af"/><rect width="45" height="130" x="115" y="100" fill="#6b7280"/><rect width="45" height="30" x="70" y="130" fill="#22c55e"/><rect width="45" height="30" x="115" y="130" fill="#15803d"/><rect width="30" height="6" x="80" y="180" fill="#e5e7eb"/><rect width="20" height="6" x="115" y="180" fill="#9ca3af"/><rect width="20" height="4" x="85" y="195" fill="#e5e7eb"/><rect width="20" height="4" x="115" y="195" fill="#9ca3af"/><polygon fill="#4b5563" points="70 230 160 230 150 240 80 240"/><polygon fill="#374151" points="115 230 160 230 150 240 115 240"/></svg>